<mxfile host="app.diagrams.net" modified="2024-05-06T02:50:28.780Z" agent="Mozilla/5.0 (Windows NT 10.0; Win64; x64) AppleWebKit/537.36 (KHTML, like Gecko) Chrome/121.0.0.0 Safari/537.36 OPR/107.0.0.0" etag="H8P6LIcGqsBz0m_RTM4D" version="24.3.1" type="github">
  <diagram name="Trang-1" id="L1Plk8p9cWH6rIeh8Mmw">
    <mxGraphModel dx="1804" dy="1042" grid="1" gridSize="10" guides="1" tooltips="1" connect="1" arrows="1" fold="1" page="1" pageScale="1" pageWidth="827" pageHeight="1169" math="0" shadow="0">
      <root>
        <mxCell id="0" />
        <mxCell id="1" parent="0" />
        <mxCell id="cfozuMJ-gLK_fUYHnGE--1" value="Khách Hàng&lt;div&gt;&lt;br&gt;&lt;/div&gt;" style="shape=umlActor;verticalLabelPosition=bottom;verticalAlign=top;html=1;outlineConnect=0;" parent="1" vertex="1">
          <mxGeometry x="60" y="490" width="30" height="60" as="geometry" />
        </mxCell>
        <mxCell id="KkpljdjRJnGIZswIgD6h-2" value="" style="edgeStyle=orthogonalEdgeStyle;rounded=0;orthogonalLoop=1;jettySize=auto;html=1;" edge="1" parent="1" source="cfozuMJ-gLK_fUYHnGE--2" target="KkpljdjRJnGIZswIgD6h-1">
          <mxGeometry relative="1" as="geometry" />
        </mxCell>
        <mxCell id="cfozuMJ-gLK_fUYHnGE--2" value="" style="ellipse;whiteSpace=wrap;html=1;" parent="1" vertex="1">
          <mxGeometry x="280" y="270" width="110" height="60" as="geometry" />
        </mxCell>
        <mxCell id="KkpljdjRJnGIZswIgD6h-1" value="" style="ellipse;whiteSpace=wrap;html=1;" vertex="1" parent="1">
          <mxGeometry x="280" y="410" width="110" height="60" as="geometry" />
        </mxCell>
      </root>
    </mxGraphModel>
  </diagram>
</mxfile>
